<svg width="279" height="243" viewBox="0 0 279 243" fill="none" xmlns="http://www.w3.org/2000/svg">
<path d="M134.129 195.462C194.675 195.462 243.758 192.511 243.758 188.871C243.758 185.23 194.675 182.279 134.129 182.279C73.5832 182.279 24.501 185.23 24.501 188.871C24.501 192.511 73.5832 195.462 134.129 195.462Z" fill="#E5E5E5"/>
<path d="M139.03 220.643C212.411 220.643 271.897 213.887 271.897 205.552C271.897 197.217 212.411 190.461 139.03 190.461C65.6499 190.461 6.16333 197.217 6.16333 205.552C6.16333 213.887 65.6499 220.643 139.03 220.643Z" fill="#E5E5E5"/>
<path d="M236.173 146.529C236.173 146.529 246.915 145.844 246.775 157.085C246.65 167.106 238.213 167.65 236.383 167.65C236.16 167.65 236.034 167.643 236.034 167.643H154.147V164.105H235.894C235.894 164.105 241.678 163.079 241.893 157.486C242.172 150.181 235.336 150.181 235.336 150.181H154.147V146.529H236.173Z" fill="#3E89FC"/>
<path d="M246.323 187.516C246.476 187.516 246.602 187.625 246.602 187.759C246.602 187.892 246.476 188.002 246.323 188.002V187.516ZM246.323 190.026C246.476 190.026 246.602 190.135 246.602 190.269C246.602 190.403 246.476 190.512 246.323 190.512V190.026ZM246.323 192.862C246.476 192.862 246.602 192.971 246.602 193.105C246.602 193.238 246.476 193.348 246.323 193.348V192.862Z" fill="black"/>
<path d="M246.323 193.348V196.859H157.68C157.68 196.859 151.24 195.916 151.003 190.777C150.693 184.063 158.299 184.063 158.299 184.063H246.323V187.516H157.169C157.016 187.516 156.89 187.625 156.89 187.759C156.89 187.892 157.016 188.002 157.169 188.002H246.323V190.026H162.47C162.317 190.026 162.191 190.135 162.191 190.269C162.191 190.403 162.317 190.512 162.47 190.512H246.323V192.862H175.862C175.709 192.862 175.583 192.971 175.583 193.105C175.583 193.238 175.709 193.348 175.862 193.348H246.323Z" fill="#E5E5E5"/>
<path d="M246.324 193.105V193.348H175.862C175.709 193.348 175.583 193.238 175.583 193.105C175.583 192.971 175.709 192.862 175.862 192.862H246.324V193.105ZM246.324 190.269V190.512H162.47C162.317 190.512 162.191 190.403 162.191 190.269C162.191 190.135 162.317 190.026 162.47 190.026H246.324V190.269ZM246.324 188.002H157.169C157.016 188.002 156.89 187.892 156.89 187.759C156.89 187.625 157.016 187.516 157.169 187.516H246.324V188.002Z" fill="black"/>
<path d="M235.337 150.181C235.337 150.181 242.172 150.181 241.893 157.486C241.678 163.08 235.895 164.105 235.895 164.105H156.246V160.703H232.22C232.374 160.703 232.499 160.594 232.499 160.46C232.499 160.327 232.374 160.217 232.22 160.217H156.246V157.328H223.758C223.911 157.328 224.037 157.219 224.037 157.085C224.037 156.951 223.911 156.842 223.758 156.842H156.246V153.739H226.269C226.422 153.739 226.548 153.629 226.548 153.496C226.548 153.362 226.422 153.253 226.269 153.253H156.246V150.181H235.337Z" fill="#E5E5E5"/>
<path d="M237.29 167.651C237.29 167.651 239.801 174.263 237.29 180.425L212.319 180.551V167.651H237.29Z" fill="#A9D9FF"/>
<path d="M232.22 160.217C232.374 160.217 232.499 160.327 232.499 160.46C232.499 160.594 232.374 160.703 232.22 160.703H156.246V160.217H232.22ZM226.269 153.253C226.422 153.253 226.548 153.362 226.548 153.496C226.548 153.629 226.422 153.739 226.269 153.739H156.246V153.253H226.269ZM223.758 156.842C223.911 156.842 224.037 156.951 224.037 157.085C224.037 157.219 223.911 157.328 223.758 157.328H156.246V156.842H223.758Z" fill="black"/>
<path d="M212.319 167.651V180.551L181.255 180.707H171.772V167.651H212.319Z" fill="white"/>
<path d="M208.832 146.519V146.529H154.148V149.202H144.662V114.21H208.832V146.519ZM193.626 133.244V125.874H182.279V133.244H193.626ZM169.353 137.565V123.281H150.521V137.565H169.353Z" fill="#A9D9FF"/>
<path d="M182.279 125.874H193.626V133.244H182.279V125.874Z" fill="white"/>
<path d="M171.772 180.7V180.707H157.367C157.367 180.707 156.332 180.653 154.876 180.841L146.475 180.882C146.475 180.882 143.964 174.491 146.475 167.651H171.772V180.7Z" fill="#A9D9FF"/>
<path d="M150.521 123.281H169.353V137.565H150.521V123.281Z" fill="white"/>
<path d="M156.245 160.46V160.703C156.092 160.703 155.967 160.594 155.967 160.46C155.967 160.327 156.092 160.217 156.245 160.217V160.46ZM156.245 157.085V157.328C156.092 157.328 155.967 157.219 155.967 157.085C155.967 156.951 156.092 156.842 156.245 156.842V157.085ZM156.245 153.496V153.739C156.092 153.739 155.967 153.629 155.967 153.496C155.967 153.362 156.092 153.253 156.245 153.253V153.496Z" fill="black"/>
<path d="M151.003 190.777C151.24 195.916 157.68 196.859 157.68 196.859H248.659V200.11H157.524C157.524 200.11 145.725 200.74 145.568 190.41C145.46 183.117 151.383 181.285 154.876 180.841L181.255 180.707H248.659V184.063H158.299C158.299 184.063 150.694 184.063 151.003 190.777Z" fill="#295FC5"/>
<path d="M104.151 101.574V132.598H47.1509V101.574H104.151ZM93.4537 116.397V109.688H79.8859V116.397H93.4537ZM70.5869 119.636V113.158H64.8199V108.378H53.1019V114.21H58.9609V119.636H70.5869Z" fill="#E5E5E5"/>
<path d="M79.886 109.688H93.4538V116.397H79.886V109.688Z" fill="white"/>
<path d="M75.651 171.638L73.1902 187.759H47.1511L44.7322 171.638H50.195C50.2257 171.697 50.2424 171.731 50.2424 171.733C50.2672 171.785 50.3119 171.828 50.3689 171.854C50.426 171.881 50.4918 171.889 50.5551 171.878C50.6184 171.867 50.6753 171.837 50.716 171.793C50.7567 171.749 50.7786 171.694 50.7781 171.638H58.6822V171.646C58.685 171.777 58.8105 171.881 58.9612 171.881H58.9695C59.1202 171.879 59.2374 171.772 59.2402 171.638H65.6572V171.641C65.6579 171.705 65.6876 171.766 65.7399 171.811C65.7921 171.856 65.8627 171.881 65.9362 171.881H65.939C66.0924 171.879 66.218 171.769 66.2152 171.638H75.651ZM70.5871 113.158V119.636H58.9612V114.21H64.8202V113.158H70.5871Z" fill="#A9D9FF"/>
<path d="M69.4237 161.097C69.3902 161.15 69.3567 161.201 69.3232 161.255C69.2702 161.167 69.2228 161.077 69.1781 160.98C69.1502 160.917 69.1251 160.851 69.1 160.786L69.0107 160.781C69.0107 160.768 69.0135 160.756 69.0135 160.742C71.1674 157.398 74.2225 154.885 78.0922 153.277C78.1252 153.263 78.1609 153.255 78.1975 153.253C78.234 153.251 78.2706 153.256 78.3051 153.267C78.3396 153.277 78.3713 153.294 78.3985 153.315C78.4256 153.336 78.4476 153.362 78.4633 153.391C78.5302 153.513 78.4716 153.656 78.3321 153.714C74.521 155.299 71.5245 157.785 69.4237 161.097Z" fill="black"/>
<path d="M69.0135 160.742C69.0582 159.765 68.3607 158.621 68.2602 157.629C68.1124 156.176 68.1682 154.22 68.7931 152.864C69.8924 150.482 72.7773 148.337 75.7905 148.31C76.7446 148.303 77.9499 148.502 78.865 148.315C80.3577 148.009 80.5335 146.84 80.9268 145.817C81.8587 143.382 86.4036 143.348 87.8907 145.334C88.9314 146.724 89.4726 148.636 88.9816 150.276C88.5408 151.749 86.8556 153.936 85.3992 154.791C83.516 155.897 81.0636 155.43 79.2556 156.73C78.4298 157.323 77.9388 158.577 78.1173 159.505C78.3321 160.604 79.317 161.384 79.423 162.565C79.6407 165.05 76.2452 165.279 74.0997 164.813C72.8247 164.535 72.1467 163.785 71.24 163.051C70.4532 162.414 69.7529 161.977 69.3232 161.255C69.3567 161.201 69.3902 161.15 69.4237 161.097C71.5245 157.785 74.521 155.299 78.3321 153.715C78.4716 153.656 78.5302 153.513 78.4633 153.392C78.4476 153.363 78.4256 153.337 78.3985 153.316C78.3713 153.294 78.3396 153.278 78.3051 153.267C78.2706 153.256 78.234 153.252 78.1975 153.254C78.161 153.255 78.1252 153.263 78.0922 153.277C74.2225 154.886 71.1674 157.398 69.0135 160.742Z" fill="#A9D9FF"/>
<path d="M65.657 171.638C65.657 171.541 65.6291 166.071 68.9325 160.864C68.9576 160.822 68.9855 160.781 69.0134 160.742C69.0134 160.757 69.0106 160.769 69.0106 160.781L69.0998 160.786C69.125 160.852 69.1501 160.917 69.178 160.98C69.2226 161.077 69.27 161.168 69.323 161.255C66.1787 166.322 66.215 171.582 66.215 171.636V171.638L65.657 171.638Z" fill="black"/>
<path d="M65.936 171.638H66.215C66.2178 171.769 66.0922 171.879 65.9388 171.881H65.936C65.8625 171.881 65.7919 171.856 65.7397 171.811C65.6874 171.766 65.6577 171.705 65.657 171.641V171.638H65.936Z" fill="black"/>
<path d="M64.4518 154.125C66.2737 155.275 66.4913 157.583 65.3112 159.245C64.0082 161.08 60.7607 163.342 58.1046 162.667C58.1018 162.642 58.0962 162.618 58.0906 162.594C56.7459 155.936 53.7801 147.161 47.3129 143.171C47.1873 143.095 47.0115 143.119 46.9223 143.229C46.833 143.338 46.8637 143.491 46.9892 143.569C53.2835 147.45 56.1962 156.057 57.5326 162.618C54.193 162.433 50.6274 161.67 47.5221 160.684C45.5412 160.054 43.0386 158.659 43.2423 156.555C43.3566 155.374 44.3666 154.633 45.385 153.982C46.169 153.479 47.0032 152.912 46.6879 151.936C46.3671 150.942 44.9693 150.864 43.9844 150.499C42.5866 149.982 41.147 149.333 40.1956 148.293C37.7543 145.618 38.078 142.284 41.292 140.272C44.1295 138.498 47.5695 138.262 50.778 139.314C53.7299 140.286 57.4824 142.556 57.474 145.494C57.4685 147.725 56.358 149.462 58.5175 151.226C60.2501 152.64 62.5658 152.935 64.4518 154.125Z" fill="#3E89FC"/>
<path d="M64.8201 113.158V114.21H53.1021V108.378H64.8201V113.158Z" fill="white"/>
<path d="M58.961 171.638H59.24C59.2372 171.772 59.12 171.879 58.9694 171.881H58.961C58.8103 171.881 58.6848 171.777 58.682 171.645V171.638H58.961ZM58.682 171.638C58.6764 171.439 58.5286 167.546 57.5437 162.676C57.5409 162.657 57.5353 162.637 57.5325 162.618C57.6274 162.625 57.7222 162.63 57.8171 162.635C57.8896 162.642 57.9594 162.645 58.0319 162.647C58.057 162.654 58.0794 162.659 58.1045 162.667C59.1089 167.643 59.24 171.592 59.24 171.631V171.638H58.682ZM50.4989 171.638H50.7779C50.778 171.67 50.7708 171.702 50.7568 171.731C50.7429 171.761 50.7223 171.788 50.6964 171.81C50.6705 171.833 50.6397 171.851 50.6058 171.863C50.5719 171.875 50.5356 171.881 50.4989 171.881C50.3901 171.881 50.2869 171.825 50.2423 171.733C50.2423 171.73 50.2255 171.697 50.1948 171.638H50.4989Z" fill="black"/>
<path d="M46.9891 143.569C46.8635 143.492 46.8329 143.338 46.9221 143.229C47.0114 143.12 47.1872 143.095 47.3127 143.171C53.78 147.161 56.7457 155.936 58.0905 162.594C58.0961 162.618 58.1017 162.642 58.1045 162.667C58.0793 162.66 58.057 162.655 58.0319 162.647C57.9594 162.645 57.8896 162.642 57.8171 162.635C57.7222 162.63 57.6274 162.626 57.5325 162.618C56.1961 156.057 53.2833 147.45 46.9891 143.569ZM45.5718 166.457C45.6304 166.397 45.6834 166.329 45.7308 166.258C45.7336 166.261 45.7392 166.263 45.742 166.265L45.7978 166.302C45.8452 166.336 45.8954 166.368 45.9428 166.404C49.4052 168.788 50.7026 171.434 50.7556 171.543C50.7723 171.575 50.7779 171.607 50.7779 171.638H50.1948C49.9298 171.152 48.5822 168.841 45.5885 166.778C45.5746 166.768 45.5634 166.759 45.5522 166.754C45.5885 166.734 45.6248 166.715 45.6638 166.698L45.7615 166.589C45.7001 166.542 45.6359 166.501 45.5718 166.457Z" fill="black"/>
<path d="M45.3988 166.649L45.4546 166.686C45.4853 166.708 45.516 166.727 45.5522 166.754C44.5367 167.252 43.9285 167.648 42.6869 167.891C41.1273 168.197 39.5398 168.221 37.9411 168.236C35.3325 168.26 33.1674 167.59 30.9689 166.472C28.9462 165.444 26.9178 163.77 26.5272 161.602C26.0808 159.136 28.8011 156.266 31.884 156.89C32.7461 157.065 32.9163 157.872 33.3181 158.436C33.7756 159.08 34.2025 159.25 35.0842 159.328C37.3831 159.527 39.3752 157.984 41.7578 158.756C43.8559 159.434 45.4351 161.245 45.8731 163.118C46.074 163.976 46.2972 165.417 45.7308 166.258C43.1891 164.557 40.1759 163.454 36.7805 162.975C36.627 162.953 36.4847 163.045 36.4596 163.176C36.4345 163.31 36.5405 163.434 36.6912 163.456C40.0001 163.92 42.9324 164.995 45.3988 166.649Z" fill="#295FC5"/>
<path d="M45.4547 166.686L45.3989 166.649C42.9325 164.995 40.0003 163.921 36.6913 163.456C36.5407 163.435 36.4346 163.31 36.4597 163.177C36.4849 163.046 36.6271 162.953 36.7806 162.975C40.176 163.454 43.1892 164.557 45.7309 166.258C45.6835 166.329 45.6305 166.397 45.5719 166.457C45.6361 166.501 45.7002 166.543 45.7616 166.589L45.664 166.698C45.6249 166.715 45.5886 166.734 45.5524 166.754C45.5161 166.727 45.4854 166.708 45.4547 166.686Z" fill="black"/>
<path d="M216.429 69.255L215.313 73.629L196.341 69.255H216.429ZM206.46 46.17L196.277 50.787L202.833 44.2819L206.46 46.17ZM197.114 93.4724L194.324 96.1065L186.651 84.5032L197.114 93.4724ZM189.999 29.0385L178.979 40.581L184.28 27.0945L189.999 29.0385Z" fill="#E22953"/>
<path d="M160.506 82.9189V82.9481C160.506 83.0817 160.631 83.1886 160.785 83.1886C160.927 83.1886 161.047 83.0939 161.061 82.9724C162.531 83.1206 163.893 83.2882 165.146 83.4705C165.143 83.4851 165.14 83.4972 165.14 83.5118C165.14 83.6455 165.265 83.7548 165.419 83.7548C165.556 83.7548 165.67 83.6673 165.692 83.5531V83.5507C170.139 84.2214 173.144 85.0257 174.715 85.5117C175.583 85.7814 176.015 85.954 176.015 85.954L174.269 89.4847C173.973 89.4094 173.677 89.3341 173.381 89.2636C163.134 86.7729 153.603 86.6975 150.515 86.751C149.842 86.7631 149.474 86.7802 149.474 86.7802L149.159 82.4062C149.823 82.4062 150.473 82.411 151.109 82.4207C154.613 82.4718 157.744 82.6589 160.506 82.9189Z" fill="#A9D9FF"/>
<path d="M169.194 66.7108C169.629 65.6805 170.039 64.9223 170.419 64.4557C170.999 63.7389 172.057 63.3112 173.251 63.3112C174.291 63.3112 175.153 63.6441 175.298 64.1083C175.441 64.5578 174.883 65.1483 173.767 65.7242C172.539 66.3584 171.002 66.6913 169.194 66.7108Z" fill="#FFC962"/>
<path d="M170.419 64.4558C170.039 64.9223 169.629 65.6805 169.194 66.7108C171.002 66.6914 172.539 66.3584 173.767 65.7242C174.883 65.1483 175.441 64.5578 175.298 64.1083C175.153 63.6441 174.291 63.3112 173.25 63.3112C172.057 63.3112 170.999 63.7389 170.419 64.4558ZM168.89 66.7254C169.311 65.7145 169.752 64.8567 170.19 64.3148C172.238 61.7828 178.607 63.5032 173.909 65.9332C172.52 66.65 170.834 66.9489 169.077 66.9562C169.077 66.9222 169.071 66.8882 169.055 66.859C169.048 66.8446 169.039 66.8307 169.029 66.8177C169.02 66.8039 169.007 66.7916 168.993 66.7813C168.981 66.771 168.968 66.7621 168.954 66.7545C168.944 66.7472 168.932 66.7407 168.921 66.7351C168.909 66.7327 168.901 66.7278 168.89 66.7254ZM169.052 67.0534C169.032 67.102 169.013 67.1506 168.996 67.1992C168.929 67.1992 168.865 67.1968 168.798 67.1968C168.912 67.1968 169.01 67.1385 169.052 67.0534Z" fill="black"/>
<path d="M169.029 66.8177C169.04 66.832 169.048 66.8463 169.054 66.8582C169.048 66.8435 169.04 66.8298 169.029 66.8177Z" fill="black"/>
<path d="M169.029 66.8177C169.04 66.8298 169.048 66.8444 169.054 66.859C169.071 66.8882 169.076 66.9222 169.076 66.9562C168.984 66.9562 168.89 66.9562 168.798 66.9538C168.828 66.876 168.859 66.8007 168.89 66.7253C168.901 66.7278 168.909 66.7326 168.92 66.7351C168.931 66.7399 168.945 66.7472 168.954 66.7545C168.967 66.7618 168.981 66.7715 168.992 66.7812C169.006 66.791 169.02 66.8055 169.029 66.8177Z" fill="black"/>
<path d="M168.605 66.7059C169.085 65.5371 169.529 64.7084 169.961 64.1738C170.644 63.3282 171.875 62.8252 173.25 62.8252C174.581 62.8252 175.619 63.2869 175.837 63.9794C175.99 64.4654 175.803 65.2358 174.051 66.1421C172.696 66.842 170.999 67.1992 169.013 67.1992H168.996C169.013 67.1506 169.032 67.102 169.051 67.0534C169.068 67.0242 169.076 66.9902 169.076 66.9562C170.834 66.9489 172.519 66.65 173.909 65.9332C178.607 63.5032 172.238 61.7827 170.19 64.3148C169.752 64.8567 169.311 65.7145 168.89 66.7253C168.868 66.7173 168.846 66.7132 168.823 66.7132C168.82 66.7108 168.817 66.7108 168.814 66.7108H168.795C168.731 66.7108 168.669 66.7083 168.605 66.7059Z" fill="black"/>
<path d="M169.013 67.1992C170.999 67.1992 172.695 66.842 174.051 66.1422C175.803 65.2358 175.99 64.4655 175.837 63.9795C175.619 63.2869 174.581 62.8252 173.25 62.8252C171.875 62.8252 170.644 63.3282 169.961 64.1739C169.528 64.7085 169.085 65.5371 168.605 66.7059C166.543 66.6525 164.191 66.1981 162.093 65.4375C162.015 63.5178 161.887 62.3562 161.711 61.8872C161.421 61.1291 160.545 60.6358 159.479 60.6358C158.726 60.6358 158.045 60.8982 157.654 61.3332C157.401 61.6175 157.144 62.1157 157.364 62.869C157.629 63.7705 159.225 64.8761 161.549 65.7631C161.686 69.3449 161.63 74.2948 161.613 75.4952L160.818 75.4126C160.779 75.4084 160.74 75.4114 160.702 75.4214C160.665 75.4315 160.63 75.4483 160.6 75.4709C160.57 75.4935 160.546 75.5215 160.53 75.553C160.514 75.5844 160.505 75.6186 160.506 75.6532V80.4767C156.315 79.4659 152.621 77.6239 149.742 75.2134C145.551 71.702 143.09 66.9902 143.342 61.897C143.849 51.6764 155.101 43.8007 168.477 44.3038C181.849 44.8068 192.281 53.5013 191.773 63.7195C191.422 70.798 185.917 76.7515 178.122 79.5752C174.662 80.8315 170.75 81.4682 166.641 81.3127C166.502 81.3078 166.362 81.3005 166.223 81.2932L167.386 76.3506C167.403 76.285 167.383 76.2145 167.339 76.1586C167.316 76.1316 167.287 76.1091 167.254 76.0923C167.221 76.0756 167.184 76.0651 167.146 76.0614L166.429 75.9885C166.683 74.8804 167.738 70.3898 168.996 67.1992H169.013Z" fill="#FFC962"/>
<path d="M168.954 66.7546C168.944 66.7467 168.933 66.7402 168.921 66.7351C168.932 66.74 168.943 66.7473 168.954 66.7546ZM168.798 66.9538C168.89 66.9562 168.985 66.9562 169.077 66.9562C169.077 66.9903 169.069 67.0243 169.052 67.0534C169.01 67.1385 168.912 67.1968 168.798 67.1968H168.795C168.764 67.1968 168.736 67.192 168.708 67.1822C168.736 67.1045 168.767 67.0291 168.798 66.9538Z" fill="black"/>
<path d="M168.795 66.7108H168.815C168.818 66.7108 168.82 66.7108 168.823 66.7132C168.846 66.7132 168.869 66.7174 168.89 66.7254C168.859 66.8007 168.828 66.8761 168.798 66.9538C168.706 66.9538 168.614 66.9514 168.519 66.9465C168.519 66.9222 168.525 66.8979 168.536 66.8736L168.553 66.8372C168.602 66.7594 168.697 66.7108 168.795 66.7108Z" fill="black"/>
<path d="M168.795 66.7108C168.697 66.7108 168.602 66.7594 168.552 66.8371C168.569 66.7934 168.586 66.7472 168.605 66.7059C168.669 66.7084 168.731 66.7108 168.795 66.7108ZM168.795 67.1968C168.764 67.1968 168.734 67.1968 168.703 67.1944C168.706 67.1895 168.706 67.1846 168.709 67.1822C168.736 67.1919 168.764 67.1968 168.795 67.1968ZM168.798 66.9538C168.767 67.0291 168.736 67.1045 168.709 67.1822C168.652 67.1673 168.602 67.1355 168.569 67.0923C168.534 67.0501 168.516 66.9987 168.519 66.9465C168.614 66.9514 168.706 66.9538 168.798 66.9538ZM168.536 66.8736C168.524 66.8979 168.518 66.9222 168.518 66.9465H168.507C168.516 66.9222 168.527 66.8979 168.536 66.8736Z" fill="black"/>
<path d="M168.569 67.0923C168.602 67.1361 168.653 67.1677 168.709 67.1822C168.706 67.1847 168.706 67.1895 168.703 67.1944C168.608 67.1944 168.511 67.192 168.413 67.1871C168.443 67.1045 168.474 67.0243 168.507 66.9465H168.519C168.516 66.9987 168.534 67.0501 168.569 67.0923Z" fill="black"/>
<path d="M168.413 67.187C167.152 70.4311 166.108 74.8974 165.874 75.9302L162.171 75.5511C162.185 74.4649 162.244 69.5952 162.115 65.972C164.178 66.6913 166.382 67.1166 168.413 67.187ZM166.223 81.2932C166.362 81.3005 166.502 81.3078 166.641 81.3126C170.751 81.4682 174.662 80.8315 178.122 79.5752V79.5776L174.715 85.5117C173.144 85.0257 170.14 84.2213 165.692 83.5507L166.223 81.2932Z" fill="#FFC962"/>
<path d="M167.386 76.3506L166.223 81.2932L165.944 81.2786L167.113 76.302L166.379 76.2267C166.385 76.1926 166.404 76.1125 166.429 75.9885L167.146 76.0614C167.224 76.0687 167.294 76.1052 167.339 76.1586C167.383 76.2145 167.403 76.285 167.386 76.3506Z" fill="black"/>
<path d="M166.778 76.5134L165.662 81.2592C164.11 81.157 162.572 80.9375 161.064 80.6031V75.9278L161.831 76.0056L166.1 76.443L166.778 76.5134Z" fill="#FFC962"/>
<path d="M166.633 103.336C167.54 103.457 167.33 105.34 164.54 107.467C161.75 109.593 156.804 110.327 154.881 110.993C153.713 110.164 152.075 109.146 151.112 108.558C151.112 108.558 154.078 101.574 154.915 102.242C155.752 102.91 155.612 105.766 155.612 105.766C155.612 105.766 165.726 103.214 166.633 103.336Z" fill="#FDA181"/>
<path d="M168.996 67.1992C167.738 70.3898 166.683 74.8804 166.429 75.9885L166.153 75.9593C166.396 74.8901 167.439 70.4287 168.703 67.1943C168.734 67.1968 168.765 67.1968 168.795 67.1968H168.798C168.865 67.1968 168.929 67.1992 168.996 67.1992ZM165.662 81.2592L166.778 76.5134L166.1 76.4429V76.4405C166.231 76.4405 166.349 76.3603 166.373 76.2437C166.373 76.2412 166.376 76.2364 166.379 76.2266L167.113 76.302L165.944 81.2786C165.849 81.2738 165.754 81.2665 165.662 81.2592ZM166.223 81.2932L165.693 83.5507C165.603 83.5361 165.512 83.5239 165.419 83.5094L165.944 81.2786L166.223 81.2932Z" fill="black"/>
<path d="M165.874 75.9302C166.108 74.8975 167.152 70.4311 168.413 67.1871C168.511 67.1919 168.608 67.1944 168.703 67.1944C167.439 70.4287 166.396 74.8902 166.153 75.9594L165.874 75.9302ZM166.429 75.9885C166.404 76.1125 166.385 76.1927 166.379 76.2267L166.1 76.1975C166.1 76.1975 166.119 76.1149 166.153 75.9594L166.429 75.9885Z" fill="black"/>
<path d="M165.827 76.1513C165.827 76.144 165.843 76.0687 165.874 75.9302L166.153 75.9594C166.119 76.1149 166.1 76.1975 166.1 76.1975L165.824 76.1683C165.824 76.1635 165.827 76.1562 165.827 76.1513Z" fill="black"/>
<path d="M166.047 76.4357C165.977 76.4245 165.915 76.3906 165.874 76.3409C165.832 76.2911 165.814 76.2294 165.823 76.1684L166.1 76.1975L166.379 76.2267C166.376 76.2364 166.373 76.2413 166.373 76.2437C166.361 76.2991 166.327 76.3491 166.277 76.3851C166.227 76.421 166.164 76.4406 166.1 76.4405C166.083 76.4405 166.066 76.4381 166.047 76.4357ZM165.662 81.2592C165.754 81.2665 165.849 81.2738 165.944 81.2787L165.419 83.5094C165.33 83.4972 165.238 83.4827 165.146 83.4705V83.4608L165.662 81.2592ZM162.172 75.5511L165.874 75.9302C165.843 76.0687 165.827 76.1441 165.827 76.1514C165.827 76.1562 165.823 76.1635 165.823 76.1684L162.166 75.7966C162.169 75.7893 162.169 75.7796 162.169 75.7698C162.169 75.7626 162.169 75.6872 162.172 75.5511Z" fill="black"/>
<path d="M161.064 80.6031C162.543 80.9311 164.08 81.1547 165.661 81.2592L165.145 83.4608V83.4705C163.893 83.2882 162.531 83.1206 161.061 82.9723C161.064 82.965 161.064 82.9553 161.064 82.9456L161.064 80.6031Z" fill="#FFC962"/>
<path d="M165.419 83.5094C165.511 83.524 165.603 83.5361 165.692 83.5507V83.5531C165.67 83.6674 165.556 83.7548 165.419 83.7548C165.265 83.7548 165.14 83.6455 165.14 83.5118C165.14 83.4973 165.143 83.4851 165.146 83.4705C165.238 83.4827 165.33 83.4973 165.419 83.5094ZM162.094 65.4375C164.192 66.1981 166.543 66.6525 168.605 66.706C168.586 66.7473 168.569 66.7934 168.552 66.8372L168.536 66.8736C168.527 66.8979 168.516 66.9222 168.507 66.9465C166.295 66.8809 164.007 66.3803 162.107 65.7048C162.104 65.6708 162.104 65.6368 162.102 65.6027V65.5954L162.094 65.4375Z" fill="black"/>
<path d="M162.107 65.7048C164.007 66.3803 166.295 66.8809 168.507 66.9465C168.474 67.0243 168.443 67.1044 168.412 67.1871C166.381 67.1166 164.177 66.6913 162.115 65.9721L162.107 65.7048ZM162.169 75.7698C162.169 75.7795 162.169 75.7893 162.166 75.7966L161.89 75.7674C161.89 75.7674 161.892 75.6799 161.892 75.522L162.171 75.5511C162.169 75.6872 162.169 75.7625 162.169 75.7698Z" fill="black"/>
<path d="M161.893 75.522C161.91 74.3799 161.968 69.4931 161.834 65.87C161.929 65.904 162.024 65.938 162.116 65.9721C162.244 69.5952 162.186 74.4649 162.172 75.5511L161.893 75.522Z" fill="black"/>
<path d="M162.116 65.9721C162.024 65.9381 161.929 65.904 161.834 65.87C161.834 65.8603 161.831 65.853 161.831 65.8457C161.884 65.8433 161.937 65.8287 161.982 65.802C162.026 65.7753 162.06 65.7388 162.079 65.6951C162.088 65.6999 162.096 65.7024 162.108 65.7048L162.116 65.9721Z" fill="black"/>
<path d="M162.079 65.695C162.094 65.6659 162.102 65.6343 162.102 65.6027C162.104 65.6367 162.104 65.6707 162.108 65.7048C162.098 65.7031 162.088 65.6998 162.079 65.695ZM162.093 65.4375L162.101 65.5954C162.099 65.4958 162.018 65.4132 161.92 65.3767C161.923 65.3767 161.928 65.3767 161.932 65.3791C161.985 65.3986 162.04 65.418 162.093 65.4375ZM161.823 65.6027C161.906 65.6343 161.993 65.6659 162.079 65.695C162.06 65.7388 162.027 65.7752 161.982 65.802C161.937 65.8287 161.884 65.8433 161.831 65.8457L161.823 65.6027ZM161.892 75.522C161.892 75.6799 161.89 75.7674 161.89 75.7674L161.611 75.7382C161.611 75.6993 161.613 75.6167 161.613 75.4952L161.892 75.522ZM166.1 76.4429L161.831 76.0055C161.848 76.008 161.867 76.0104 161.887 76.0104H161.89C162.032 76.0104 162.149 75.918 162.166 75.7965L165.823 76.1683C165.804 76.2947 165.901 76.4113 166.047 76.4356C166.066 76.4381 166.083 76.4405 166.099 76.4405V76.4429H166.1ZM161.613 75.4952C161.63 74.2948 161.686 69.3449 161.55 65.7631C161.602 65.7849 161.658 65.8044 161.714 65.8263C161.753 65.8408 161.795 65.8554 161.834 65.87C161.968 69.4931 161.909 74.3799 161.892 75.522L161.613 75.4952Z" fill="black"/>
<path d="M161.812 65.3597C161.848 65.3573 161.887 65.3646 161.921 65.3767C162.018 65.4132 162.099 65.4958 162.102 65.5954V65.6027C162.102 65.6343 162.094 65.6659 162.079 65.6951C161.993 65.6659 161.906 65.6343 161.823 65.6027C161.82 65.5201 161.817 65.4399 161.812 65.3597ZM161.834 65.87C161.795 65.8554 161.753 65.8409 161.714 65.8263C161.747 65.8384 161.786 65.8457 161.823 65.8457H161.831C161.831 65.853 161.834 65.8603 161.834 65.87Z" fill="black"/>
<path d="M161.822 65.6027C161.736 65.5712 161.653 65.5371 161.566 65.5055C161.587 65.4636 161.621 65.4276 161.664 65.4018C161.708 65.376 161.758 65.3614 161.811 65.3597C161.816 65.4399 161.819 65.5201 161.822 65.6027Z" fill="black"/>
<path d="M161.756 65.367C161.738 65.3697 161.721 65.3746 161.706 65.3816C161.722 65.3767 161.739 65.3694 161.756 65.367ZM161.714 65.8263C161.665 65.8088 161.623 65.7792 161.592 65.7413C161.562 65.7033 161.545 65.6586 161.544 65.6124C161.544 65.593 161.544 65.5736 161.55 65.5541C161.552 65.5371 161.558 65.5225 161.566 65.5079V65.5055C161.653 65.5371 161.736 65.5711 161.823 65.6027C161.826 65.6829 161.829 65.7631 161.831 65.8457H161.823C161.786 65.8457 161.747 65.8384 161.714 65.8263ZM161.611 75.7382L161.89 75.7674L162.166 75.7966C162.149 75.9181 162.032 76.0104 161.89 76.0104H161.887C161.85 76.0101 161.814 76.0036 161.78 75.9911C161.746 75.9786 161.716 75.9605 161.69 75.9377C161.665 75.9149 161.644 75.8879 161.631 75.8582C161.617 75.8286 161.61 75.7969 161.611 75.765V75.7382Z" fill="black"/>
<path d="M161.544 65.6124C161.546 65.7048 161.61 65.7874 161.713 65.8263C161.658 65.8044 161.602 65.785 161.549 65.7631C161.546 65.7121 161.546 65.661 161.544 65.6124Z" fill="black"/>
<path d="M161.527 65.2236C159.546 64.4314 158.112 63.4594 157.906 62.7474C157.775 62.2955 157.839 61.9212 158.096 61.6321C158.38 61.3137 158.899 61.1218 159.48 61.1218C160.101 61.1218 160.922 61.3623 161.181 62.0403C161.287 62.3198 161.429 63.1022 161.527 65.2236Z" fill="#FFC962"/>
<path d="M160.785 75.6532L161.611 75.7382V75.765C161.608 75.8816 161.703 75.9813 161.831 76.0056L161.064 75.9278V80.6031C160.969 80.5837 160.877 80.5642 160.785 80.5424V75.6532Z" fill="black"/>
<path d="M160.785 82.9456V80.5424C160.877 80.5642 160.969 80.5837 161.064 80.6031V82.9456C161.064 82.9553 161.064 82.9651 161.061 82.9724C160.969 82.9626 160.877 82.9553 160.785 82.9456ZM160.818 75.4126L161.613 75.4952C161.613 75.6167 161.611 75.6994 161.611 75.7382L160.785 75.6532V80.5424L160.506 80.4767V75.6532C160.506 75.5827 160.539 75.5171 160.601 75.4709C160.659 75.4248 160.737 75.4053 160.818 75.4126Z" fill="black"/>
<path d="M160.784 80.5424V82.9456C160.692 82.9359 160.598 82.9286 160.506 82.9189V80.4767L160.784 80.5424Z" fill="black"/>
<path d="M160.785 82.9456C160.877 82.9553 160.969 82.9626 161.061 82.9723C161.047 83.0938 160.927 83.1886 160.785 83.1886C160.631 83.1886 160.506 83.0817 160.506 82.948V82.9189C160.598 82.9286 160.693 82.9359 160.785 82.9456Z" fill="black"/>
<path d="M160.506 80.4767V82.9189C157.744 82.6589 154.614 82.4718 151.109 82.4207L149.742 75.2133C152.621 77.6239 156.315 79.4658 160.506 80.4767Z" fill="#FFC962"/>
<path d="M159.728 25.8795L159.114 36.936L156.246 25.8795H159.728Z" fill="#E22953"/>
<path d="M152.147 90.6633C154.901 90.7289 162.752 91.0618 170.807 92.7701L170.748 92.984L170.051 96.1065C159.114 94.284 152.195 94.041 152.195 94.041L152.142 90.8407L152.147 90.6633Z" fill="#295FC5"/>
<path d="M161.181 62.0403C160.922 61.3624 160.101 61.1218 159.479 61.1218C158.899 61.1218 158.38 61.3138 158.095 61.6321C157.839 61.9213 157.775 62.2955 157.905 62.7475C158.112 63.4594 159.546 64.4314 161.527 65.2236C161.429 63.1022 161.287 62.3198 161.181 62.0403ZM157.635 62.8082C156.985 60.575 160.796 60.264 161.446 61.965C161.627 62.4413 161.742 63.7389 161.812 65.3597C161.792 65.3597 161.775 65.3621 161.756 65.367C161.739 65.3694 161.723 65.3767 161.706 65.3816C161.643 65.4065 161.594 65.4507 161.566 65.5055C159.429 64.6745 157.878 63.6393 157.635 62.8082Z" fill="black"/>
<path d="M161.446 61.965C160.796 60.264 156.985 60.5751 157.635 62.8082C157.878 63.6393 159.429 64.6745 161.566 65.5055V65.508C161.558 65.5225 161.552 65.5395 161.549 65.5541C161.544 65.5736 161.544 65.593 161.544 65.6124C161.546 65.661 161.546 65.7121 161.549 65.7631C159.225 64.8762 157.629 63.7705 157.364 62.869C157.144 62.1157 157.401 61.6175 157.655 61.3332C158.045 60.8982 158.726 60.6358 159.479 60.6358C160.545 60.6358 161.421 61.1291 161.711 61.8873C161.887 62.3562 162.015 63.5178 162.093 65.4375C162.04 65.418 161.984 65.3986 161.932 65.3792C161.929 65.3767 161.923 65.3767 161.92 65.3767C161.886 65.3639 161.849 65.358 161.811 65.3597C161.742 63.7389 161.628 62.4413 161.446 61.965Z" fill="black"/>
<path d="M151.112 108.558C152.075 109.146 153.712 110.164 154.881 110.993C155.585 111.491 156.12 111.919 156.24 112.144C156.332 112.319 155.476 113.014 154.058 113.996C151.958 112.12 147.357 109.688 147.357 109.688C149.098 108.743 150.311 108.074 150.311 108.074C150.311 108.074 150.627 108.261 151.112 108.558Z" fill="#A9D9FF"/>
<path d="M173.259 89.667L171.794 92.9839C171.465 92.9086 171.136 92.8381 170.807 92.7701C162.752 91.0618 154.901 90.7289 152.147 90.6633C151.48 90.6487 151.112 90.6487 151.112 90.6487L150.52 87.0547L150.515 86.751C153.603 86.6975 163.134 86.7729 173.382 89.2636L173.259 89.667Z" fill="#3E89FC"/>
<path d="M141.623 36.241L144.104 46.17L136.961 37.3345L141.623 36.241ZM140.198 77.6385L130.014 84.5033L128.061 81.337L140.198 77.6385ZM135.036 62.8082L119.08 60.8788L120.249 56.4975L135.036 62.8082Z" fill="#E22953"/>
<path d="M135.315 124.781C132.944 125.206 125.62 120.893 125.62 120.893L125.405 120.834C125.595 120.285 125.729 119.809 125.759 119.495C125.829 118.783 124.975 116.727 124.122 114.883C126.847 118.428 131.292 123.308 135.901 124.596C135.653 124.693 135.455 124.756 135.315 124.781Z" fill="#295FC5"/>
<path d="M119.777 210.022C123.357 210.9 126.574 210.312 127.774 210.025L127.921 211.228C127.921 211.228 136.082 212.686 137.686 213.177C139.291 213.668 139.012 216.331 139.012 216.331L119.272 215.298L119.777 210.022Z" fill="#1E1950"/>
<path d="M117.61 147.022V147.02C118.829 146.862 120.042 146.66 121.225 146.407C131.479 144.22 131.897 143.37 131.897 143.37C131.897 143.37 132.154 169.086 129.643 182.816C129.643 182.816 129.247 207.583 128.27 209.891C128.27 209.891 128.094 209.947 127.774 210.025C126.574 210.312 123.357 210.9 119.777 210.022C119.61 209.983 119.443 209.94 119.272 209.891C119.272 209.891 119.364 186.867 119.783 183.708C120.201 180.549 115.202 155.824 115.202 155.824L115.029 155.785C116.53 150.699 117.61 147.022 117.61 147.022Z" fill="#403882"/>
<path d="M116.761 98.2328C116.761 98.2328 124.417 99.4453 120.054 104.898C118.569 104.966 116.39 105.132 114.742 105.265C113.416 105.375 112.437 105.462 112.437 105.462L111.675 102.85L111.251 101.392C111.251 101.392 116.552 99.3263 116.761 98.2328Z" fill="#1E1950"/>
<path d="M116.321 109.999V111.294L111.586 108.684L116.321 109.999Z" fill="#295FC5"/>
<path d="M114.741 105.265L116.321 109.999L111.586 108.684L110.484 108.378L112.437 105.462C112.437 105.462 113.416 105.375 114.741 105.265Z" fill="#A9D9FF"/>
<path d="M109.641 92.9791C109.898 92.9305 110.021 92.5441 109.912 92.1189C109.806 91.6912 109.51 91.385 109.253 91.4336C108.997 91.4822 108.874 91.8686 108.98 92.2938C109.089 92.7215 109.385 93.0277 109.641 92.9791ZM112.493 91.5162C112.601 91.9439 112.897 92.2501 113.154 92.2015C113.411 92.1529 113.533 91.7665 113.425 91.3389C113.319 90.9136 113.023 90.605 112.766 90.656C112.509 90.7046 112.387 91.0886 112.493 91.5162ZM111.929 92.9888C111.963 93.1103 112.59 95.3386 113.134 96.1065L114.342 94.77C113.307 94.3764 112.01 93.069 111.929 92.9888ZM101.137 95.9243C101.277 93.8588 103.509 94.1018 103.509 94.1018L103.607 92.5223C103.607 92.5223 105.744 91.3218 107.22 89.4532C107.32 89.4289 107.412 89.407 107.499 89.39C107.8 89.3535 108.472 89.3074 108.896 89.3876C109.047 89.4143 109.195 89.3317 109.228 89.2005C109.243 89.1373 109.229 89.0716 109.189 89.0175C109.149 88.9634 109.086 88.9253 109.014 88.9113C108.556 88.8262 107.956 88.8578 107.635 88.887C108.469 87.6282 108.933 86.1216 108.322 84.5033C108.322 84.5033 112.116 84.5616 113.494 87.9393C112.671 88.0729 112.057 88.3451 112.03 88.3572C111.893 88.4204 111.84 88.5662 111.91 88.6853C111.96 88.7679 112.057 88.8165 112.158 88.8165C112.203 88.8165 112.244 88.8068 112.286 88.7898C112.292 88.7874 112.872 88.5273 113.631 88.4083C113.645 88.4058 113.656 88.4034 113.67 88.4034C113.966 89.1859 114.292 90.0534 114.619 90.9379C115.763 94.0507 116.92 97.4066 116.761 98.2328C116.552 99.3263 111.251 101.392 111.251 101.392C111.251 101.392 109.717 101.841 107.694 101.117C107.694 101.117 108.933 102.592 111.675 102.85L112.437 105.462L110.484 108.378L105.253 106.981C107.485 102.303 104.485 97.5645 104.485 97.5645C104.485 97.5645 100.998 97.9898 101.137 95.9243ZM112.959 99.1027C113.924 98.5365 114.019 97.2 114.019 97.2C114.019 97.2 111.739 97.8488 109.694 97.686C109.694 97.686 111.993 99.6713 112.959 99.1027Z" fill="#FDA181"/>
<path d="M114.343 94.77L113.134 96.1065C112.59 95.3386 111.963 93.1103 111.929 92.9888C112.01 93.069 113.307 94.3764 114.343 94.77Z" fill="#F77556"/>
<path d="M114.019 97.2C114.019 97.2 113.924 98.5365 112.959 99.1027C111.993 99.6713 109.694 97.686 109.694 97.686C111.739 97.8488 114.019 97.2 114.019 97.2Z" fill="white"/>
<path d="M114.728 88.3694C114.404 88.3354 114.05 88.35 113.67 88.4034C113.642 88.3257 113.612 88.2479 113.584 88.1701C113.572 88.1434 113.564 88.1142 113.553 88.0875C113.533 88.0365 113.514 87.9879 113.494 87.9393L113.533 87.932C113.983 87.8615 114.404 87.8469 114.795 87.8883C114.945 87.9028 115.057 88.0243 115.037 88.158C115.021 88.2892 114.881 88.3864 114.728 88.3694Z" fill="black"/>
<path d="M113.154 92.2015C112.897 92.2501 112.602 91.9439 112.493 91.5162C112.387 91.0886 112.509 90.7046 112.766 90.656C113.023 90.605 113.319 90.9136 113.425 91.3389C113.533 91.7665 113.411 92.1529 113.154 92.2015Z" fill="#231F20"/>
<path d="M113.631 88.4083C112.872 88.5273 112.292 88.7873 112.286 88.7898C112.244 88.8068 112.203 88.8165 112.158 88.8165C112.057 88.8165 111.96 88.7679 111.91 88.6853C111.84 88.5662 111.893 88.4204 112.03 88.3572C112.057 88.3451 112.671 88.0729 113.494 87.9393C113.514 87.9879 113.533 88.0365 113.553 88.0875C113.564 88.1142 113.572 88.1434 113.584 88.1701C113.611 88.2479 113.642 88.3256 113.67 88.4034C113.656 88.4034 113.645 88.4058 113.631 88.4083Z" fill="black"/>
<path d="M111.251 101.392L111.675 102.85C108.933 102.592 107.694 101.117 107.694 101.117C109.717 101.841 111.251 101.392 111.251 101.392Z" fill="#F77556"/>
<path d="M110.484 108.378L107.786 112.103L105.063 108.38L105.06 108.378L104.151 107.136V107.134L105.253 106.981L110.484 108.378Z" fill="#A9D9FF"/>
<path d="M109.254 91.4336C109.51 91.385 109.806 91.6912 109.912 92.1189C110.021 92.5441 109.898 92.9305 109.641 92.9791C109.385 93.0277 109.089 92.7215 108.98 92.2938C108.874 91.8686 108.997 91.4822 109.254 91.4336Z" fill="#231F20"/>
<path d="M107.973 114.21L105.063 108.38L107.786 112.103L110.484 108.378L111.586 108.684L107.973 114.21Z" fill="#295FC5"/>
<path d="M108.897 89.3876C108.472 89.3074 107.8 89.3535 107.499 89.39C107.412 89.407 107.32 89.4289 107.22 89.4532C107.301 89.3535 107.376 89.2515 107.451 89.1494H107.454C107.515 89.0644 107.577 88.9769 107.635 88.887C107.956 88.8578 108.556 88.8262 109.014 88.9113C109.164 88.9404 109.259 89.0692 109.229 89.2004C109.195 89.3317 109.047 89.4143 108.897 89.3876Z" fill="black"/>
<path d="M107.22 89.4531C106.584 89.6062 105.724 89.8735 105.454 90.119C105.428 90.143 105.397 90.1621 105.362 90.1751C105.328 90.1881 105.29 90.1946 105.253 90.1943C105.183 90.1943 105.113 90.1724 105.06 90.1263C105.034 90.1043 105.013 90.0779 104.998 90.0488C104.983 90.0197 104.975 89.9883 104.974 89.9565C104.974 89.9246 104.98 89.893 104.993 89.8633C105.007 89.8337 105.027 89.8066 105.052 89.7836C105.579 89.2976 107.203 88.9501 107.387 88.9137L107.429 88.9064C107.462 88.904 107.535 88.8943 107.635 88.887C107.577 88.9769 107.515 89.0643 107.454 89.1494H107.451C107.376 89.2515 107.301 89.3535 107.22 89.4531Z" fill="black"/>
<path d="M98.8525 143.006C98.8665 142.52 97.8119 140.308 97.8119 140.308L98.4564 140.043C98.4564 140.043 102.323 132.86 101.905 130.916C101.715 130.029 98.515 123.215 96.8131 119.626C96.1881 118.312 95.7668 117.43 95.7668 117.43L95.5436 117.391L93.9003 124.396L91.3726 128.547L96.9274 137.565C93.7106 138.259 91.6097 139.54 90.6248 140.257C88.0246 136.59 83.262 129.823 83.2118 129.337C83.1421 128.669 92.6978 109.35 93.0466 108.986C93.1275 108.9 93.8361 108.745 94.874 108.56C97.4492 108.096 102.05 107.433 104.151 107.134V107.136L105.06 108.378L105.063 108.38L107.973 114.21L111.586 108.684L116.321 111.294V109.999L114.742 105.265C116.39 105.132 118.569 104.966 120.054 104.898C120.949 104.859 121.591 104.855 121.714 104.915C122.202 105.158 134.269 116.093 135.106 116.033C135.7 115.989 143.105 112.001 147.357 109.688C147.357 109.688 151.957 112.12 154.058 113.996C149.452 117.189 138.925 123.41 135.901 124.596C131.292 123.308 126.847 118.428 124.122 114.883C124.975 116.727 125.829 118.783 125.759 119.495C125.729 119.809 125.595 120.285 125.405 120.834C124.755 122.717 123.458 125.449 123.458 125.449C123.458 125.449 130.154 136.08 131.897 143.37C131.897 143.37 131.479 144.221 121.226 146.408C120.043 146.66 118.829 146.862 117.61 147.02C108.26 148.252 98.5066 147.023 98.5066 147.023C98.7075 145.19 98.8442 143.253 98.8525 143.006Z" fill="#3E89FC"/>
<path d="M101.137 95.9242C100.998 97.9897 104.486 97.5645 104.486 97.5645C104.486 97.5645 107.485 102.303 105.253 106.981L104.151 107.134C102.05 107.433 97.4491 108.096 94.8739 108.56V108.558C94.8656 108.558 92.349 108.555 92.0002 105.097C91.6515 101.635 96.6735 99.873 97.1617 97.7467C97.65 95.6205 94.4415 93.8587 94.9995 90.4567C95.5575 87.0547 98.6962 82.7415 107.694 81.4657C116.692 80.19 117.984 87.1058 114.619 90.9379C114.292 90.0534 113.966 89.1858 113.67 88.4034C114.05 88.3499 114.404 88.3353 114.728 88.3694C114.764 88.3733 114.801 88.3709 114.836 88.3624C114.871 88.3539 114.904 88.3394 114.933 88.3198C114.962 88.3001 114.986 88.2757 115.004 88.2479C115.022 88.2202 115.033 88.1896 115.037 88.158C115.042 88.1263 115.039 88.0943 115.029 88.0636C115.02 88.0329 115.003 88.0042 114.98 87.9791C114.958 87.954 114.93 87.9331 114.898 87.9175C114.866 87.9019 114.831 87.8919 114.795 87.8882C114.404 87.8469 113.983 87.8615 113.533 87.932L113.494 87.9393C112.116 84.5616 108.322 84.5032 108.322 84.5032C108.933 86.1216 108.47 87.6282 107.635 88.887C107.535 88.8942 107.462 88.904 107.429 88.9064L107.387 88.9137C107.203 88.9501 105.579 89.2976 105.052 89.7836C104.946 89.8808 104.949 90.0339 105.06 90.1263C105.113 90.1724 105.183 90.1943 105.253 90.1943C105.325 90.1943 105.401 90.17 105.454 90.119C105.724 89.8735 106.584 89.6062 107.22 89.4531C105.744 91.3218 103.607 92.5222 103.607 92.5222L103.509 94.1017C103.509 94.1017 101.277 93.8587 101.137 95.9242Z" fill="#1E1950"/>
<path d="M96.9274 137.565L98.4563 140.043L97.8118 140.308L93.0995 142.245L92.2792 142.58C92.2792 142.58 91.6068 141.64 90.6248 140.257C91.6096 139.54 93.7105 138.26 96.9274 137.565Z" fill="#A9D9FF"/>
<path d="M97.8119 140.308C97.8119 140.308 98.8665 142.52 98.8525 143.006C98.8442 143.253 98.7074 145.19 98.5066 147.022C98.3141 148.784 98.063 150.446 97.8119 150.417C97.6193 150.395 97.1367 150.14 96.5619 149.72C95.6078 149.017 94.4053 147.856 93.8835 146.529C93.0465 144.403 93.0995 142.245 93.0995 142.245L97.8119 140.308Z" fill="#FDA181"/>
<path d="M95.418 186.26C95.6273 182.797 96.4531 150.176 96.5619 149.72C97.1367 150.14 97.6193 150.395 97.8119 150.417C98.063 150.446 98.3141 148.784 98.5066 147.022C98.5066 147.022 108.26 148.252 117.61 147.02V147.022C117.61 147.022 116.53 150.699 115.029 155.785C111.804 166.693 106.639 184.08 106.02 185.531C106.02 185.531 105.532 195.416 99.4635 208.112C99.4635 208.112 99.2403 208.176 98.8358 208.251C97.597 208.484 94.6536 208.844 91.1717 207.928C90.7811 207.823 90.3821 207.704 89.9775 207.566C89.9775 207.566 95.2088 189.722 95.418 186.26Z" fill="#295FC5"/>
<path d="M91.1716 207.928C94.6535 208.844 97.597 208.484 98.8358 208.251L98.0685 214.994L79.1663 215.298C79.1663 215.298 79.1663 213.293 79.7243 212.321C80.2823 211.349 89.9775 209.83 89.9775 209.83L91.1716 207.928Z" fill="#1E1950"/>
<path d="M95.7667 117.43C95.7667 117.43 96.1879 118.312 96.8129 119.626L96.8073 119.629L93.9001 124.397L95.5435 117.391L95.7667 117.43Z" fill="#295FC5"/>
<path d="M184.977 59.3729C184.703 57.1016 182.415 53.5079 180.328 52.2443C179.736 51.8861 177.763 51.0541 177.017 51.6297C175.795 52.5728 177.605 54.2002 178.281 54.8368C179.409 55.8995 180.652 56.9828 181.402 58.2306C181.959 59.1576 182.161 60.3848 182.885 61.1952C184.916 63.4672 185.956 60.5938 184.791 58.8869M184.233 65.6909C183.974 66.2489 183.201 68.4222 183.486 69.0929C183.92 70.1177 185.25 70.3915 186.065 69.4168C187.351 67.8767 184.615 64.5109 183.861 66.5008" fill="white"/>
</svg>
